MerriweatherSans-Regular.ufo
<glyph name="percent" format="1">
  <advance width="1962"/>
  <unicode hex="0025"/>
  <outline>
    <contour>
      <point x="429" y="665" type="curve" smooth="yes"/>
      <point x="629" y="670"/>
      <point x="812" y="816"/>
      <point x="812" y="1083" type="curve" smooth="yes"/>
      <point x="812" y="1314"/>
      <point x="705" y="1502"/>
      <point x="458" y="1496" type="curve" smooth="yes"/>
      <point x="258" y="1490"/>
      <point x="75" y="1343"/>
      <point x="75" y="1075" type="curve" smooth="yes"/>
      <point x="75" y="853"/>
      <point x="204" y="661"/>
    </contour>
    <contour>
      <point x="557" y="0" type="line"/>
      <point x="747" y="0" type="line"/>
      <point x="1397" y="1530" type="line"/>
      <point x="1207" y="1530" type="line"/>
    </contour>
    <contour>
      <point x="442" y="812" type="curve" smooth="yes"/>
      <point x="333" y="812"/>
      <point x="270" y="928"/>
      <point x="270" y="1083" type="curve" smooth="yes"/>
      <point x="270" y="1247"/>
      <point x="333" y="1350"/>
      <point x="446" y="1350" type="curve" smooth="yes"/>
      <point x="554" y="1350"/>
      <point x="617" y="1241"/>
      <point x="617" y="1076" type="curve" smooth="yes"/>
      <point x="617" y="912"/>
      <point x="554" y="812"/>
    </contour>
    <contour>
      <point x="1504" y="51" type="curve" smooth="yes"/>
      <point x="1704" y="56"/>
      <point x="1887" y="201"/>
      <point x="1887" y="468" type="curve" smooth="yes"/>
      <point x="1887" y="699"/>
      <point x="1780" y="887"/>
      <point x="1534" y="881" type="curve" smooth="yes"/>
      <point x="1333" y="875"/>
      <point x="1150" y="728"/>
      <point x="1150" y="460" type="curve" smooth="yes"/>
      <point x="1150" y="238"/>
      <point x="1280" y="46"/>
    </contour>
    <contour>
      <point x="1517" y="197" type="curve" smooth="yes"/>
      <point x="1408" y="197"/>
      <point x="1346" y="313"/>
      <point x="1346" y="468" type="curve" smooth="yes"/>
      <point x="1346" y="633"/>
      <point x="1408" y="736"/>
      <point x="1521" y="736" type="curve" smooth="yes"/>
      <point x="1630" y="736"/>
      <point x="1692" y="626"/>
      <point x="1692" y="461" type="curve" smooth="yes"/>
      <point x="1692" y="297"/>
      <point x="1630" y="197"/>
    </contour>
  </outline>
</glyph>
<glyph name="quotesingle" format="1">
  <advance width="772"/>
  <unicode hex="0027"/>
  <outline>
    <contour>
      <point x="298" y="966" type="line"/>
      <point x="475" y="966" type="line"/>
      <point x="507" y="1685" type="line"/>
      <point x="265" y="1685" type="line"/>
    </contour>
  </outline>
</glyph>
<glyph name="nine" format="1">
  <advance width="1399"/>
  <unicode hex="0039"/>
  <outline>
    <contour>
      <point x="176" y="725" type="curve" smooth="yes"/>
      <point x="176" y="481"/>
      <point x="324" y="256"/>
      <point x="585" y="256" type="curve" smooth="yes"/>
      <point x="742" y="256"/>
      <point x="834" y="305"/>
      <point x="867" y="342" type="curve"/>
      <point x="815" y="466" type="line"/>
      <point x="776" y="448"/>
      <point x="740" y="427"/>
      <point x="643" y="427" type="curve" smooth="yes"/>
      <point x="501" y="427"/>
      <point x="397" y="552"/>
      <point x="397" y="799" type="curve" smooth="yes"/>
      <point x="397" y="954"/>
      <point x="507" y="1115"/>
      <point x="676" y="1115" type="curve" smooth="yes"/>
      <point x="918" y="1115"/>
      <point x="989" y="884"/>
      <point x="980" y="583" type="curve" smooth="yes"/>
      <point x="971" y="278"/>
      <point x="701" y="-151"/>
      <point x="287" y="-254" type="curve"/>
      <point x="361" y="-390" type="line"/>
      <point x="743" y="-311"/>
      <point x="1216" y="108"/>
      <point x="1216" y="684" type="curve"/>
      <point x="1216" y="1001"/>
      <point x="1045" y="1272"/>
      <point x="709" y="1272" type="curve" smooth="yes"/>
      <point x="372" y="1272"/>
      <point x="176" y="1050"/>
    </contour>
  </outline>
</glyph>
<glyph name="E" format="1">
  <advance width="1217"/>
  <unicode hex="0045"/>
  <outline>
    <contour>
      <point x="194" y="0" type="line"/>
      <point x="1143" y="0" type="line"/>
      <point x="1143" y="175" type="line"/>
      <point x="417" y="175" type="line"/>
      <point x="417" y="698" type="line"/>
      <point x="896" y="698" type="line"/>
      <point x="896" y="870" type="line"/>
      <point x="417" y="870" type="line"/>
      <point x="417" y="1350" type="line"/>
      <point x="1070" y="1350" type="line"/>
      <point x="1070" y="1522" type="line"/>
      <point x="194" y="1522" type="line"/>
    </contour>
    <contour>
      <point x="683" y="-170" type="move" name="btm"/>
    </contour>
    <contour>
      <point x="680" y="1700" type="move" name="top"/>
    </contour>
  </outline>
</glyph>
<glyph name="G" format="1">
  <advance width="1433"/>
  <unicode hex="0047"/>
  <outline>
    <contour>
      <point x="99" y="753" type="curve" smooth="yes"/>
      <point x="99" y="313"/>
      <point x="354" y="-16"/>
      <point x="804" y="-16" type="curve" smooth="yes"/>
      <point x="1113" y="-16"/>
      <point x="1229" y="89"/>
      <point x="1317" y="94" type="curve"/>
      <point x="1317" y="761" type="line"/>
      <point x="825" y="761" type="line"/>
      <point x="825" y="601" type="line"/>
      <point x="1163" y="585" type="line"/>
      <point x="1102" y="627" type="line"/>
      <point x="1102" y="211" type="line"/>
      <point x="1044" y="172"/>
      <point x="910" y="154"/>
      <point x="801" y="154" type="curve" smooth="yes"/>
      <point x="480" y="154"/>
      <point x="330" y="428"/>
      <point x="330" y="780" type="curve" smooth="yes"/>
      <point x="330" y="1148"/>
      <point x="525" y="1364"/>
      <point x="790" y="1364" type="curve" smooth="yes"/>
      <point x="1014" y="1364"/>
      <point x="1123" y="1328"/>
      <point x="1220" y="1278" type="curve"/>
      <point x="1230" y="1478" type="line"/>
      <point x="1097" y="1504"/>
      <point x="1032" y="1538"/>
      <point x="804" y="1538" type="curve" smooth="yes"/>
      <point x="411" y="1538"/>
      <point x="99" y="1275"/>
    </contour>
    <contour>
      <point x="804" y="-170" type="move" name="btm"/>
    </contour>
    <contour>
      <point x="807" y="1700" type="move" name="top"/>
    </contour>
  </outline>
</glyph>
<glyph name="H" format="1">
  <advance width="1552"/>
  <unicode hex="0048"/>
  <outline>
    <contour>
      <point x="194" y="0" type="line"/>
      <point x="417" y="0" type="line"/>
      <point x="417" y="683" type="line"/>
      <point x="1135" y="683" type="line"/>
      <point x="1135" y="0" type="line"/>
      <point x="1358" y="0" type="line"/>
      <point x="1358" y="1522" type="line"/>
      <point x="1135" y="1522" type="line"/>
      <point x="1135" y="855" type="line"/>
      <point x="417" y="855" type="line"/>
      <point x="417" y="1522" type="line"/>
      <point x="194" y="1522" type="line"/>
    </contour>
    <contour>
      <point x="770" y="-170" type="move" name="btm"/>
    </contour>
    <contour>
      <point x="776" y="1700" type="move" name="top"/>
    </contour>
  </outline>
</glyph>
<glyph name="P" format="1">
  <advance width="1270"/>
  <unicode hex="0050"/>
  <outline>
    <contour>
      <point x="194" y="0" type="line"/>
      <point x="417" y="0" type="line"/>
      <point x="417" y="527" type="line"/>
      <point x="456" y="526"/>
      <point x="517" y="522"/>
      <point x="614" y="522" type="curve" smooth="yes"/>
      <point x="994" y="522"/>
      <point x="1196" y="714"/>
      <point x="1196" y="1045" type="curve" smooth="yes"/>
      <point x="1196" y="1391"/>
      <point x="993" y="1538"/>
      <point x="665" y="1538" type="curve" smooth="yes"/>
      <point x="530" y="1538"/>
      <point x="415" y="1522"/>
      <point x="299" y="1522" type="curve" smooth="yes"/>
      <point x="194" y="1522" type="line"/>
    </contour>
    <contour>
      <point x="417" y="696" type="curve"/>
      <point x="417" y="1359" type="line"/>
      <point x="473" y="1373"/>
      <point x="537" y="1376"/>
      <point x="598" y="1378" type="curve" smooth="yes"/>
      <point x="842" y="1386"/>
      <point x="974" y="1287"/>
      <point x="974" y="1043" type="curve" smooth="yes"/>
      <point x="974" y="744"/>
      <point x="796" y="686"/>
      <point x="601" y="686" type="curve" smooth="yes"/>
      <point x="543" y="686"/>
      <point x="484" y="687"/>
    </contour>
    <contour>
      <point x="692" y="-170" type="move" name="btm"/>
    </contour>
    <contour>
      <point x="692" y="1700" type="move" name="top"/>
    </contour>
  </outline>
</glyph>
<glyph name="W" format="1">
  <advance width="1918"/>
  <unicode hex="0057"/>
  <outline>
    <contour>
      <point x="441" y="-16" type="line"/>
      <point x="632" y="-16" type="line"/>
      <point x="926" y="981" type="line"/>
      <point x="995" y="1346" type="line"/>
      <point x="926" y="1348" type="line"/>
      <point x="995" y="982" type="line"/>
      <point x="1285" y="-16" type="line"/>
      <point x="1503" y="-16" type="line"/>
      <point x="1896" y="1522" type="line"/>
      <point x="1672" y="1522" type="line"/>
      <point x="1446" y="533" type="line"/>
      <point x="1383" y="163" type="line"/>
      <point x="1421" y="163" type="line"/>
      <point x="1333" y="534" type="line"/>
      <point x="1042" y="1522" type="line"/>
      <point x="881" y="1522" type="line"/>
      <point x="594" y="534" type="line"/>
      <point x="526" y="163" type="line"/>
      <point x="561" y="163" type="line"/>
      <point x="493" y="534" type="line"/>
      <point x="251" y="1522" type="line"/>
      <point x="22" y="1522" type="line"/>
    </contour>
    <contour>
      <point x="960" y="-170" type="move" name="btm"/>
    </contour>
    <contour>
      <point x="960" y="1700" type="move" name="top"/>
    </contour>
  </outline>
</glyph>
<glyph name="a" format="1">
  <advance width="1131"/>
  <unicode hex="0061"/>
  <outline>
    <contour>
      <point x="443" y="-16" type="curve" smooth="yes"/>
      <point x="578" y="-16"/>
      <point x="702" y="40"/>
      <point x="763" y="96" type="curve"/>
      <point x="797" y="184" type="line"/>
      <point x="750" y="229" type="line"/>
      <point x="727" y="202"/>
      <point x="610" y="148"/>
      <point x="508" y="148" type="curve" smooth="yes"/>
      <point x="375" y="148"/>
      <point x="311" y="208"/>
      <point x="311" y="324" type="curve" smooth="yes"/>
      <point x="311" y="412"/>
      <point x="364" y="458"/>
      <point x="438" y="493" type="curve" smooth="yes"/>
      <point x="520" y="532"/>
      <point x="667" y="548"/>
      <point x="750" y="548" type="curve"/>
      <point x="798" y="627" type="line"/>
      <point x="750" y="688" type="line"/>
      <point x="621" y="688"/>
      <point x="448" y="667"/>
      <point x="316" y="614" type="curve" smooth="yes"/>
      <point x="180" y="558"/>
      <point x="94" y="453"/>
      <point x="94" y="305" type="curve" smooth="yes"/>
      <point x="94" y="105"/>
      <point x="241" y="-16"/>
    </contour>
    <contour>
      <point x="970" y="-16" type="line"/>
      <point x="970" y="794" type="line" smooth="yes"/>
      <point x="970" y="1093"/>
      <point x="806" y="1157"/>
      <point x="564" y="1157" type="curve" smooth="yes"/>
      <point x="387" y="1157"/>
      <point x="187" y="1078"/>
      <point x="145" y="1052" type="curve"/>
      <point x="199" y="908" type="line"/>
      <point x="251" y="945"/>
      <point x="407" y="991"/>
      <point x="507" y="991" type="curve" smooth="yes"/>
      <point x="672" y="991"/>
      <point x="750" y="966"/>
      <point x="750" y="803" type="curve" smooth="yes"/>
      <point x="750" y="170" type="line"/>
      <point x="763" y="170" type="line"/>
      <point x="763" y="88" type="line" smooth="yes"/>
      <point x="763" y="-11"/>
      <point x="804" y="-16"/>
      <point x="880" y="-16" type="curve" smooth="yes"/>
    </contour>
    <contour>
      <point x="521" y="-170" type="move" name="btm"/>
    </contour>
    <contour>
      <point x="566" y="1700" type="move" name="top"/>
    </contour>
  </outline>
</glyph>
<glyph name="d" format="1">
  <advance width="1237"/>
  <unicode hex="0064"/>
  <outline>
    <contour>
      <point x="976" y="-16" type="curve" smooth="yes"/>
      <point x="1071" y="-16" type="line"/>
      <point x="1071" y="1664" type="line"/>
      <point x="851" y="1664" type="line"/>
      <point x="851" y="1189" type="line"/>
      <point x="861" y="979" type="line"/>
      <point x="851" y="973" type="line"/>
      <point x="851" y="158" type="line"/>
      <point x="863" y="154" type="line"/>
      <point x="863" y="72" type="line" smooth="yes"/>
      <point x="863" y="-8"/>
      <point x="908" y="-16"/>
    </contour>
    <contour>
      <point x="546" y="-16" type="curve" smooth="yes"/>
      <point x="753" y="-16"/>
      <point x="842" y="91"/>
      <point x="890" y="141" type="curve"/>
      <point x="852" y="250" type="line"/>
      <point x="805" y="212"/>
      <point x="717" y="157"/>
      <point x="607" y="157" type="curve" smooth="yes"/>
      <point x="422" y="157"/>
      <point x="318" y="284"/>
      <point x="321" y="558" type="curve" smooth="yes"/>
      <point x="324" y="844"/>
      <point x="464" y="996"/>
      <point x="646" y="996" type="curve" smooth="yes"/>
      <point x="744" y="996"/>
      <point x="811" y="982"/>
      <point x="852" y="945" type="curve"/>
      <point x="938" y="1087" type="line"/>
      <point x="912" y="1110"/>
      <point x="808" y="1156"/>
      <point x="668" y="1156" type="curve" smooth="yes"/>
      <point x="323" y="1156"/>
      <point x="97" y="897"/>
      <point x="97" y="528" type="curve" smooth="yes"/>
      <point x="97" y="158"/>
      <point x="307" y="-16"/>
    </contour>
    <contour>
      <point x="566" y="-170" type="move" name="btm"/>
    </contour>
    <contour>
      <point x="361" y="1700" type="move" name="top"/>
    </contour>
  </outline>
</glyph>
<glyph name="h" format="1">
  <advance width="1289"/>
  <unicode hex="0068"/>
  <outline>
    <contour>
      <point x="176" y="0" type="line"/>
      <point x="396" y="0" type="line"/>
      <point x="396" y="869" type="line"/>
      <point x="487" y="935"/>
      <point x="603" y="970"/>
      <point x="677" y="973" type="curve" smooth="yes"/>
      <point x="851" y="981"/>
      <point x="899" y="897"/>
      <point x="899" y="711" type="curve" smooth="yes"/>
      <point x="899" y="0" type="line"/>
      <point x="1119" y="0" type="line"/>
      <point x="1119" y="695" type="line" smooth="yes"/>
      <point x="1119" y="1028"/>
      <point x="1016" y="1163"/>
      <point x="768" y="1157" type="curve" smooth="yes"/>
      <point x="619" y="1153"/>
      <point x="457" y="1084"/>
      <point x="372" y="1017" type="curve"/>
      <point x="384" y="992" type="line"/>
      <point x="396" y="1189" type="line"/>
      <point x="396" y="1664" type="line"/>
      <point x="176" y="1664" type="line"/>
    </contour>
    <contour>
      <point x="628" y="-170" type="move" name="btm"/>
    </contour>
    <contour>
      <point x="754" y="1700" type="move" name="top"/>
    </contour>
  </outline>
</glyph>
<glyph name="l" format="1">
  <advance width="613"/>
  <unicode hex="006C"/>
  <outline>
    <contour>
      <point x="197" y="0" type="line"/>
      <point x="417" y="0" type="line"/>
      <point x="417" y="1664" type="line"/>
      <point x="197" y="1664" type="line"/>
    </contour>
    <contour>
      <point x="289" y="-170" type="move" name="btm"/>
    </contour>
    <contour>
      <point x="310" y="1700" type="move" name="top"/>
    </contour>
  </outline>
</glyph>
<glyph name="q" format="1">
  <advance width="1237"/>
  <unicode hex="0071"/>
  <outline>
    <contour>
      <point x="853" y="-139" type="line"/>
      <point x="853" y="-506" type="line"/>
      <point x="1073" y="-506" type="line"/>
      <point x="1073" y="1140" type="line"/>
      <point x="881" y="1102" type="line"/>
      <point x="876" y="1002" type="line"/>
      <point x="853" y="976" type="line"/>
      <point x="853" y="201" type="line"/>
      <point x="859" y="109" type="line"/>
    </contour>
    <contour>
      <point x="546" y="-16" type="curve" smooth="yes"/>
      <point x="753" y="-16"/>
      <point x="843" y="91"/>
      <point x="891" y="141" type="curve"/>
      <point x="853" y="250" type="line"/>
      <point x="806" y="212"/>
      <point x="717" y="157"/>
      <point x="607" y="157" type="curve" smooth="yes"/>
      <point x="422" y="157"/>
      <point x="318" y="284"/>
      <point x="321" y="558" type="curve" smooth="yes"/>
      <point x="324" y="844"/>
      <point x="464" y="996"/>
      <point x="646" y="996" type="curve" smooth="yes"/>
      <point x="744" y="996"/>
      <point x="812" y="982"/>
      <point x="853" y="945" type="curve"/>
      <point x="954" y="1087" type="line"/>
      <point x="929" y="1110"/>
      <point x="808" y="1156"/>
      <point x="668" y="1156" type="curve" smooth="yes"/>
      <point x="323" y="1156"/>
      <point x="97" y="897"/>
      <point x="97" y="528" type="curve" smooth="yes"/>
      <point x="97" y="158"/>
      <point x="307" y="-16"/>
    </contour>
    <contour>
      <point x="599" y="-170" type="move" name="btm"/>
    </contour>
    <contour>
      <point x="566" y="1700" type="move" name="top"/>
    </contour>
  </outline>
</glyph>
<glyph name="w" format="1">
  <advance width="1632"/>
  <unicode hex="0077"/>
  <outline>
    <contour>
      <point x="369" y="-16" type="line"/>
      <point x="578" y="-16" type="line"/>
      <point x="779" y="729" type="line"/>
      <point x="844" y="1025" type="line"/>
      <point x="796" y="1025" type="line"/>
      <point x="856" y="729" type="line"/>
      <point x="1060" y="-16" type="line"/>
      <point x="1263" y="-16" type="line"/>
      <point x="1611" y="1140" type="line"/>
      <point x="1396" y="1140" type="line"/>
      <point x="1218" y="449" type="line"/>
      <point x="1138" y="111" type="line"/>
      <point x="1197" y="111" type="line"/>
      <point x="1119" y="456" type="line"/>
      <point x="930" y="1140" type="line"/>
      <point x="711" y="1140" type="line"/>
      <point x="521" y="455" type="line"/>
      <point x="446" y="107" type="line"/>
      <point x="507" y="107" type="line"/>
      <point x="425" y="456" type="line"/>
      <point x="241" y="1140" type="line"/>
      <point x="21" y="1140" type="line"/>
    </contour>
    <contour>
      <point x="822" y="-163" type="move" name="btm"/>
    </contour>
    <contour>
      <point x="822" y="1711" type="move" name="top"/>
    </contour>
  </outline>
</glyph>
<glyph name="x" format="1">
  <advance width="1134"/>
  <unicode hex="0078"/>
  <outline>
    <contour>
      <point x="50" y="0" type="line"/>
      <point x="301" y="0" type="line"/>
      <point x="533" y="376" type="line"/>
      <point x="601" y="515" type="line"/>
      <point x="512" y="515" type="line"/>
      <point x="595" y="379" type="line"/>
      <point x="845" y="0" type="line"/>
      <point x="1100" y="0" type="line"/>
      <point x="659" y="621" type="line"/>
      <point x="659" y="545" type="line"/>
      <point x="1091" y="1140" type="line"/>
      <point x="844" y="1140" type="line"/>
      <point x="593" y="764" type="line"/>
      <point x="537" y="647" type="line"/>
      <point x="615" y="647" type="line"/>
      <point x="547" y="762" type="line"/>
      <point x="297" y="1140" type="line"/>
      <point x="47" y="1140" type="line"/>
      <point x="477" y="543" type="line"/>
      <point x="475" y="613" type="line"/>
    </contour>
    <contour>
      <point x="582" y="-170" type="move" name="btm"/>
    </contour>
    <contour>
      <point x="582" y="1700" type="move" name="top"/>
    </contour>
  </outline>
</glyph>
<glyph name="z" format="1">
  <advance width="1061"/>
  <unicode hex="007A"/>
  <outline>
    <contour>
      <point x="124" y="0" type="line"/>
      <point x="969" y="0" type="line"/>
      <point x="969" y="160" type="line"/>
      <point x="380" y="160" type="line"/>
      <point x="439" y="244" type="line"/>
      <point x="989" y="1045" type="line"/>
      <point x="954" y="1140" type="line"/>
      <point x="142" y="1140" type="line"/>
      <point x="142" y="972" type="line"/>
      <point x="692" y="972" type="line"/>
      <point x="635" y="889" type="line"/>
      <point x="82" y="82" type="line"/>
    </contour>
    <contour>
      <point x="531" y="-170" type="move" name="btm"/>
    </contour>
    <contour>
      <point x="535" y="1700" type="move" name="top"/>
    </contour>
  </outline>
</glyph>
<glyph name="braceleft" format="1">
  <advance width="972"/>
  <unicode hex="007B"/>
  <outline>
    <contour>
      <point x="327" y="60" type="line"/>
      <point x="327" y="-137"/>
      <point x="371" y="-196"/>
      <point x="525" y="-196" type="curve" smooth="yes"/>
      <point x="634" y="-196"/>
      <point x="716" y="-185"/>
      <point x="802" y="-161" type="curve"/>
      <point x="802" y="-49" type="line"/>
      <point x="536" y="-49" type="line"/>
      <point x="536" y="572" type="line" smooth="yes"/>
      <point x="536" y="604"/>
      <point x="521" y="633"/>
      <point x="496" y="660" type="curve" smooth="yes"/>
      <point x="445" y="713"/>
      <point x="351" y="757"/>
      <point x="264" y="788" type="curve"/>
      <point x="264" y="764" type="line"/>
      <point x="349" y="799"/>
      <point x="442" y="833"/>
      <point x="492" y="882" type="curve" smooth="yes"/>
      <point x="520" y="908"/>
      <point x="536" y="938"/>
      <point x="536" y="976" type="curve" smooth="yes"/>
      <point x="536" y="1596" type="line"/>
      <point x="802" y="1596" type="line"/>
      <point x="802" y="1718" type="line"/>
      <point x="716" y="1729"/>
      <point x="634" y="1742"/>
      <point x="525" y="1742" type="curve" smooth="yes"/>
      <point x="371" y="1742"/>
      <point x="327" y="1683"/>
      <point x="327" y="1486" type="curve" smooth="yes"/>
      <point x="327" y="975" type="line" smooth="yes"/>
      <point x="327" y="915"/>
      <point x="176" y="858"/>
      <point x="75" y="848" type="curve"/>
      <point x="75" y="706" type="line"/>
      <point x="176" y="696"/>
      <point x="327" y="629"/>
      <point x="327" y="571" type="curve" smooth="yes"/>
    </contour>
  </outline>
</glyph>
<glyph name="asciitilde" format="1">
  <advance width="1438"/>
  <unicode hex="007E"/>
  <outline>
    <contour>
      <point x="331" y="669" type="line"/>
      <point x="378" y="733"/>
      <point x="430" y="783"/>
      <point x="524" y="783" type="curve" smooth="yes"/>
      <point x="667" y="783"/>
      <point x="711" y="614"/>
      <point x="904" y="614" type="curve" smooth="yes"/>
      <point x="1074" y="614"/>
      <point x="1182" y="713"/>
      <point x="1221" y="817" type="curve"/>
      <point x="1118" y="916" type="line"/>
      <point x="1070" y="851"/>
      <point x="1010" y="802"/>
      <point x="916" y="802" type="curve" smooth="yes"/>
      <point x="777" y="802"/>
      <point x="725" y="970"/>
      <point x="532" y="970" type="curve" smooth="yes"/>
      <point x="367" y="970"/>
      <point x="248" y="842"/>
      <point x="216" y="758" type="curve"/>
    </contour>
  </outline>
</glyph>
<glyph name="acute" format="1">
  <advance width="594"/>
  <unicode hex="00B4"/>
  <outline>
    <contour>
      <point x="161" y="1294" type="line"/>
      <point x="234" y="1322"/>
      <point x="495" y="1565"/>
      <point x="544" y="1648" type="curve"/>
      <point x="388" y="1783" type="line"/>
      <point x="290" y="1645"/>
      <point x="164" y="1509"/>
      <point x="50" y="1384" type="curve"/>
    </contour>
    <contour>
      <point x="180" y="1700" type="move" name="_top"/>
    </contour>
  </outline>
</glyph>
<glyph name="eth" format="1">
  <advance width="1190"/>
  <unicode hex="00F0"/>
  <outline>
    <contour>
      <point x="607" y="-27" type="curve" smooth="yes"/>
      <point x="912" y="-23"/>
      <point x="1114" y="184"/>
      <point x="1114" y="608" type="curve" smooth="yes"/>
      <point x="1114" y="1010"/>
      <point x="956" y="1345"/>
      <point x="674" y="1564" type="curve" smooth="yes"/>
      <point x="657" y="1577"/>
      <point x="639" y="1591"/>
      <point x="620" y="1604" type="curve" smooth="yes"/>
      <point x="518" y="1674"/>
      <point x="403" y="1731"/>
      <point x="274" y="1771" type="curve"/>
      <point x="222" y="1646" type="line"/>
      <point x="317" y="1613"/>
      <point x="408" y="1562"/>
      <point x="491" y="1502" type="curve" smooth="yes"/>
      <point x="507" y="1491"/>
      <point x="523" y="1479"/>
      <point x="538" y="1467" type="curve" smooth="yes"/>
      <point x="702" y="1335"/>
      <point x="827" y="1148"/>
      <point x="859" y="923" type="curve"/>
      <point x="938" y="885" type="line"/>
      <point x="907" y="1022"/>
      <point x="795" y="1153"/>
      <point x="606" y="1154" type="curve" smooth="yes"/>
      <point x="301" y="1155"/>
      <point x="95" y="928"/>
      <point x="95" y="553" type="curve" smooth="yes"/>
      <point x="95" y="196"/>
      <point x="294" y="-31"/>
    </contour>
    <contour>
      <point x="616" y="124" type="curve" smooth="yes"/>
      <point x="414" y="124"/>
      <point x="313" y="309"/>
      <point x="313" y="561" type="curve" smooth="yes"/>
      <point x="313" y="812"/>
      <point x="410" y="990"/>
      <point x="615" y="990" type="curve" smooth="yes"/>
      <point x="795" y="990"/>
      <point x="877" y="911"/>
      <point x="890" y="849" type="curve"/>
      <point x="899" y="743"/>
      <point x="895" y="658"/>
      <point x="895" y="554" type="curve" smooth="yes"/>
      <point x="895" y="293"/>
      <point x="786" y="124"/>
    </contour>
    <contour>
      <point x="419" y="1306" type="line"/>
      <point x="582" y="1487" type="line"/>
      <point x="607" y="1521" type="line"/>
      <point x="665" y="1570"/>
      <point x="793" y="1721"/>
      <point x="793" y="1721" type="curve"/>
      <point x="676" y="1811" type="line"/>
      <point x="676" y="1811"/>
      <point x="549" y="1653"/>
      <point x="499" y="1609" type="curve"/>
      <point x="474" y="1579" type="line"/>
      <point x="304" y="1396" type="line"/>
    </contour>
  </outline>
</glyph>
<glyph name="thorn" format="1">
  <advance width="1238"/>
  <unicode hex="00FE"/>
  <outline>
    <contour>
      <point x="166" y="64" type="line"/>
      <point x="166" y="-507" type="line"/>
      <point x="386" y="-507" type="line"/>
      <point x="386" y="-169" type="line"/>
      <point x="372" y="20" type="line"/>
    </contour>
    <component base="b"/>
  </outline>
</glyph>
<glyph name="Eogonek" format="1">
  <advance width="1217"/>
  <unicode hex="0118"/>
  <outline>
    <contour>
      <point x="657" y="-312" type="curve"/>
      <point x="659" y="-449"/>
      <point x="763" y="-512"/>
      <point x="903" y="-512" type="curve" smooth="yes"/>
      <point x="987" y="-512"/>
      <point x="1083" y="-496"/>
      <point x="1140" y="-453" type="curve"/>
      <point x="1140" y="-335" type="line"/>
      <point x="1096" y="-352"/>
      <point x="1046" y="-364"/>
      <point x="1001" y="-364" type="curve" smooth="yes"/>
      <point x="931" y="-364"/>
      <point x="875" y="-345"/>
      <point x="873" y="-259" type="curve"/>
      <point x="871" y="-162"/>
      <point x="988" y="-55"/>
      <point x="1114" y="11" type="curve"/>
      <point x="1083" y="28" type="line"/>
      <point x="933" y="5" type="line"/>
      <point x="781" y="-55"/>
      <point x="655" y="-180"/>
    </contour>
    <component base="E"/>
  </outline>
</glyph>
<glyph name="hbar" format="1">
  <advance width="1289"/>
  <unicode hex="0127"/>
  <outline>
    <contour>
      <point x="36" y="1284" type="line"/>
      <point x="628" y="1284" type="line"/>
      <point x="628" y="1416" type="line"/>
      <point x="36" y="1416" type="line"/>
    </contour>
    <component base="h"/>
  </outline>
</glyph>
<glyph name="idotless" format="1">
  <advance width="606"/>
  <unicode hex="0131"/>
  <outline>
    <contour>
      <point x="193" y="0" type="line"/>
      <point x="413" y="0" type="line"/>
      <point x="413" y="1138" type="line"/>
      <point x="193" y="1138" type="line"/>
    </contour>
    <contour>
      <point x="354" y="-170" type="move" name="btm"/>
    </contour>
    <contour>
      <point x="303" y="1700" type="move" name="top"/>
    </contour>
  </outline>
</glyph>
<glyph name="oe" format="1">
  <advance width="1920"/>
  <unicode hex="0153"/>
  <outline>
    <contour>
      <point x="1399" y="-16" type="curve" smooth="yes"/>
      <point x="1536" y="-16"/>
      <point x="1711" y="25"/>
      <point x="1786" y="86" type="curve"/>
      <point x="1744" y="212" type="line"/>
      <point x="1688" y="179"/>
      <point x="1532" y="151"/>
      <point x="1455" y="151" type="curve" smooth="yes"/>
      <point x="1270" y="151"/>
      <point x="1123" y="234"/>
      <point x="1110" y="502" type="curve"/>
      <point x="1097" y="877"/>
      <point x="1226" y="1000"/>
      <point x="1390" y="1000" type="curve" smooth="yes"/>
      <point x="1590" y="1000"/>
      <point x="1626" y="831"/>
      <point x="1616" y="668" type="curve"/>
      <point x="1046" y="668" type="line"/>
      <point x="1026" y="522" type="line"/>
      <point x="1812" y="522" type="line"/>
      <point x="1822" y="573"/>
      <point x="1823" y="640"/>
      <point x="1823" y="726" type="curve" smooth="yes"/>
      <point x="1814" y="1011"/>
      <point x="1631" y="1160"/>
      <point x="1403" y="1156" type="curve" smooth="yes"/>
      <point x="1069" y="1150"/>
      <point x="895" y="904"/>
      <point x="895" y="572" type="curve" smooth="yes"/>
      <point x="895" y="202"/>
      <point x="1075" y="-16"/>
    </contour>
    <contour>
      <point x="599" y="140" type="curve" smooth="yes"/>
      <point x="408" y="144"/>
      <point x="319" y="347"/>
      <point x="319" y="591" type="curve" smooth="yes"/>
      <point x="319" y="854"/>
      <point x="421" y="1002"/>
      <point x="610" y="998" type="curve" smooth="yes"/>
      <point x="806" y="995"/>
      <point x="895" y="800"/>
      <point x="895" y="556" type="curve" smooth="yes"/>
      <point x="895" y="292"/>
      <point x="792" y="136"/>
    </contour>
    <contour>
      <point x="593" y="-16" type="curve" smooth="yes"/>
      <point x="885" y="-16"/>
      <point x="1104" y="180"/>
      <point x="1109" y="546" type="curve" smooth="yes"/>
      <point x="1113" y="871"/>
      <point x="979" y="1156"/>
      <point x="616" y="1156" type="curve"/>
      <point x="324" y="1156"/>
      <point x="102" y="960"/>
      <point x="96" y="594" type="curve" smooth="yes"/>
      <point x="92" y="269"/>
      <point x="230" y="-16"/>
    </contour>
    <contour>
      <point x="1005" y="-170" type="move" name="btm"/>
    </contour>
    <contour>
      <point x="1005" y="1700" type="move" name="top"/>
    </contour>
  </outline>
</glyph>
<glyph name="tbar" format="1">
  <advance width="850"/>
  <unicode hex="0167"/>
  <outline>
    <contour>
      <point x="81" y="596" type="line"/>
      <point x="769" y="596" type="line"/>
      <point x="769" y="760" type="line"/>
      <point x="81" y="760" type="line"/>
    </contour>
    <component base="t"/>
  </outline>
</glyph>
<glyph name="uogonek" format="1">
  <advance width="1249"/>
  <unicode hex="0173"/>
  <outline>
    <contour>
      <point x="661" y="-302" type="curve"/>
      <point x="662" y="-439"/>
      <point x="767" y="-512"/>
      <point x="907" y="-512" type="curve" smooth="yes"/>
      <point x="991" y="-512"/>
      <point x="1087" y="-496"/>
      <point x="1144" y="-453" type="curve"/>
      <point x="1144" y="-335" type="line"/>
      <point x="1100" y="-352"/>
      <point x="1050" y="-364"/>
      <point x="1005" y="-364" type="curve" smooth="yes"/>
      <point x="935" y="-364"/>
      <point x="879" y="-345"/>
      <point x="877" y="-259" type="curve"/>
      <point x="875" y="-162"/>
      <point x="962" y="-75"/>
      <point x="1068" y="-9" type="curve"/>
      <point x="1037" y="8" type="line"/>
      <point x="907" y="5" type="line"/>
      <point x="785" y="-55"/>
      <point x="658" y="-180"/>
    </contour>
    <component base="u"/>
  </outline>
</glyph>
<glyph name="dotaccent" format="1">
  <advance width="403"/>
  <unicode hex="02D9"/>
  <outline>
    <contour>
      <point x="191" y="1347" type="curve" smooth="yes"/>
      <point x="274" y="1347"/>
      <point x="353" y="1411"/>
      <point x="353" y="1503" type="curve" smooth="yes"/>
      <point x="353" y="1578"/>
      <point x="307" y="1638"/>
      <point x="212" y="1638" type="curve" smooth="yes"/>
      <point x="133" y="1638"/>
      <point x="50" y="1569"/>
      <point x="50" y="1482" type="curve" smooth="yes"/>
      <point x="50" y="1399"/>
      <point x="116" y="1347"/>
    </contour>
    <contour>
      <point x="202" y="1700" type="move" name="_top"/>
    </contour>
  </outline>
</glyph>
<glyph name="tilde" format="1">
  <advance width="927"/>
  <unicode hex="02DC"/>
  <outline>
    <contour>
      <point x="132" y="1385" type="line"/>
      <point x="173" y="1428"/>
      <point x="235" y="1482"/>
      <point x="315" y="1482" type="curve" smooth="yes"/>
      <point x="419" y="1482"/>
      <point x="440" y="1344"/>
      <point x="611" y="1344" type="curve" smooth="yes"/>
      <point x="733" y="1344"/>
      <point x="830" y="1430"/>
      <point x="881" y="1537" type="curve"/>
      <point x="795" y="1609" type="line"/>
      <point x="754" y="1564"/>
      <point x="702" y="1511"/>
      <point x="612" y="1511" type="curve" smooth="yes"/>
      <point x="509" y="1511"/>
      <point x="478" y="1648"/>
      <point x="317" y="1648" type="curve" smooth="yes"/>
      <point x="196" y="1648"/>
      <point x="92" y="1553"/>
      <point x="47" y="1453" type="curve"/>
    </contour>
    <contour>
      <point x="466" y="1700" type="move" name="_top"/>
    </contour>
  </outline>
</glyph>
<glyph name="emdash" format="1">
  <advance width="2343"/>
  <unicode hex="2014"/>
  <outline>
    <contour>
      <point x="240" y="683" type="line"/>
      <point x="2103" y="683" type="line"/>
      <point x="2103" y="860" type="line"/>
      <point x="240" y="860" type="line"/>
    </contour>
  </outline>
</glyph>
<glyph name="quoteright" format="1">
  <advance width="520"/>
  <unicode hex="2019"/>
  <outline>
    <contour>
      <point x="223" y="960" type="line"/>
      <point x="292" y="1010"/>
      <point x="410" y="1158"/>
      <point x="410" y="1408" type="curve" smooth="yes"/>
      <point x="410" y="1591"/>
      <point x="344" y="1690"/>
      <point x="254" y="1733" type="curve"/>
      <point x="111" y="1616" type="line"/>
      <point x="111" y="1555" type="line"/>
      <point x="153" y="1529"/>
      <point x="204" y="1434"/>
      <point x="204" y="1325" type="curve" smooth="yes"/>
      <point x="204" y="1230"/>
      <point x="175" y="1103"/>
      <point x="127" y="1053" type="curve"/>
      <point x="127" y="1021" type="line"/>
    </contour>
  </outline>
</glyph>
<glyph name="quotereversed" format="1">
  <advance width="520"/>
  <unicode hex="201B"/>
  <outline>
    <contour>
      <point x="304" y="1733" type="line"/>
      <point x="184" y="1690"/>
      <point x="98" y="1550"/>
      <point x="98" y="1367" type="curve" smooth="yes"/>
      <point x="98" y="1161"/>
      <point x="228" y="1010"/>
      <point x="305" y="960" type="curve"/>
      <point x="401" y="1021" type="line"/>
      <point x="401" y="1053" type="line"/>
      <point x="341" y="1103"/>
      <point x="304" y="1230"/>
      <point x="304" y="1325" type="curve" smooth="yes"/>
      <point x="304" y="1429"/>
      <point x="365" y="1520"/>
      <point x="417" y="1545" type="curve"/>
      <point x="417" y="1606" type="line"/>
    </contour>
  </outline>
</glyph>
<glyph name="ellipsis" format="1">
  <advance width="2047"/>
  <unicode hex="2026"/>
  <outline>
    <contour>
      <point x="333" y="-22" type="curve" smooth="yes"/>
      <point x="419" y="-22"/>
      <point x="498" y="54"/>
      <point x="495" y="153" type="curve" smooth="yes"/>
      <point x="493" y="234"/>
      <point x="443" y="304"/>
      <point x="348" y="304" type="curve" smooth="yes"/>
      <point x="265" y="304"/>
      <point x="185" y="225"/>
      <point x="187" y="130" type="curve" smooth="yes"/>
      <point x="190" y="42"/>
      <point x="257" y="-22"/>
    </contour>
    <contour>
      <point x="1015" y="-22" type="curve" smooth="yes"/>
      <point x="1101" y="-22"/>
      <point x="1180" y="54"/>
      <point x="1177" y="153" type="curve" smooth="yes"/>
      <point x="1175" y="234"/>
      <point x="1126" y="304"/>
      <point x="1030" y="304" type="curve" smooth="yes"/>
      <point x="948" y="304"/>
      <point x="867" y="225"/>
      <point x="870" y="130" type="curve" smooth="yes"/>
      <point x="872" y="42"/>
      <point x="939" y="-22"/>
    </contour>
    <contour>
      <point x="1698" y="-22" type="curve" smooth="yes"/>
      <point x="1784" y="-22"/>
      <point x="1862" y="54"/>
      <point x="1860" y="153" type="curve" smooth="yes"/>
      <point x="1857" y="234"/>
      <point x="1808" y="304"/>
      <point x="1713" y="304" type="curve" smooth="yes"/>
      <point x="1630" y="304"/>
      <point x="1549" y="225"/>
      <point x="1552" y="130" type="curve" smooth="yes"/>
      <point x="1554" y="42"/>
      <point x="1622" y="-22"/>
    </contour>
  </outline>
</glyph>
<glyph name="fraction" format="1">
  <advance width="1026"/>
  <unicode hex="2044"/>
  <outline>
    <contour>
      <point x="340" y="0" type="line"/>
      <point x="882" y="1530" type="line"/>
      <point x="682" y="1530" type="line"/>
      <point x="143" y="0" type="line"/>
    </contour>
  </outline>
</glyph>
<glyph name="peso" format="1">
  <advance width="1377"/>
  <unicode hex="20B1"/>
  <outline>
    <contour>
      <point x="30" y="1068" type="line" name="hr01"/>
      <point x="195" y="1068" type="line"/>
      <point x="195" y="955" type="line"/>
      <point x="30" y="955" type="line"/>
      <point x="30" y="848" type="line"/>
      <point x="195" y="848" type="line"/>
      <point x="195" y="0" type="line"/>
      <point x="428" y="0" type="line"/>
      <point x="428" y="519" type="line"/>
      <point x="467" y="518"/>
      <point x="527" y="515"/>
      <point x="624" y="515" type="curve" smooth="yes"/>
      <point x="925" y="515"/>
      <point x="1115" y="634"/>
      <point x="1182" y="848" type="curve"/>
      <point x="1371" y="848" type="line"/>
      <point x="1371" y="955" type="line"/>
      <point x="1204" y="955" type="line"/>
      <point x="1207" y="982"/>
      <point x="1209" y="1011"/>
      <point x="1209" y="1041" type="curve" smooth="yes"/>
      <point x="1209" y="1050"/>
      <point x="1209" y="1059"/>
      <point x="1208" y="1068" type="curve"/>
      <point x="1371" y="1068" type="line"/>
      <point x="1371" y="1175" type="line"/>
      <point x="1197" y="1175" type="line"/>
      <point x="1150" y="1429"/>
      <point x="959" y="1538"/>
      <point x="674" y="1538" type="curve" smooth="yes"/>
      <point x="537" y="1538"/>
      <point x="421" y="1522"/>
      <point x="305" y="1522" type="curve" name="hr02" smooth="yes"/>
      <point x="195" y="1522" type="line"/>
      <point x="195" y="1175" type="line"/>
      <point x="30" y="1175" type="line"/>
    </contour>
    <contour>
      <point x="428" y="1353" type="line"/>
      <point x="484" y="1367"/>
      <point x="548" y="1370"/>
      <point x="609" y="1372" type="curve" smooth="yes"/>
      <point x="797" y="1377"/>
      <point x="917" y="1317"/>
      <point x="960" y="1175" type="curve"/>
      <point x="428" y="1175" type="line"/>
    </contour>
    <contour>
      <point x="978" y="1039" type="curve" smooth="yes"/>
      <point x="978" y="1008"/>
      <point x="976" y="980"/>
      <point x="972" y="955" type="curve"/>
      <point x="428" y="955" type="line"/>
      <point x="428" y="1068" type="line"/>
      <point x="977" y="1068" type="line"/>
      <point x="978" y="1058"/>
      <point x="978" y="1049"/>
    </contour>
    <contour>
      <point x="428" y="695" type="curve"/>
      <point x="428" y="848" type="line"/>
      <point x="943" y="848" type="line"/>
      <point x="883" y="717"/>
      <point x="752" y="685"/>
      <point x="612" y="685" type="curve" smooth="yes"/>
      <point x="552" y="685"/>
      <point x="494" y="686"/>
    </contour>
  </outline>
</glyph>
<glyph name="product" format="1">
  <advance width="1657"/>
  <unicode hex="220F"/>
  <outline>
    <contour>
      <point x="556" y="-170" type="line"/>
      <point x="556" y="1370" type="line"/>
      <point x="543" y="1356" type="line"/>
      <point x="1114" y="1356" type="line"/>
      <point x="1101" y="1370" type="line"/>
      <point x="1101" y="-170" type="line"/>
      <point x="1326" y="-170" type="line"/>
      <point x="1326" y="1371" type="line"/>
      <point x="1313" y="1356" type="line"/>
      <point x="1519" y="1356" type="line"/>
      <point x="1519" y="1522" type="line"/>
      <point x="138" y="1522" type="line"/>
      <point x="138" y="1356" type="line"/>
      <point x="344" y="1356" type="line"/>
      <point x="331" y="1377" type="line"/>
      <point x="331" y="-170" type="line"/>
    </contour>
  </outline>
</glyph>
<glyph name="lessequal" format="1">
  <advance width="1368"/>
  <unicode hex="2264"/>
  <outline>
    <contour>
      <point x="160" y="0" type="line"/>
      <point x="1130" y="0" type="line"/>
      <point x="1130" y="162" type="line"/>
      <point x="160" y="162" type="line"/>
    </contour>
    <contour>
      <point x="1130" y="264" type="line"/>
      <point x="1130" y="467" type="line"/>
      <point x="365" y="783" type="line"/>
      <point x="365" y="763" type="line"/>
      <point x="1130" y="1079" type="line"/>
      <point x="1130" y="1281" type="line"/>
      <point x="160" y="850" type="line"/>
      <point x="160" y="695" type="line"/>
    </contour>
  </outline>
</glyph>
<glyph name="acute.cap" format="1">
  <advance width="597"/>
  <outline>
    <contour>
      <point x="151" y="1573" type="line"/>
      <point x="266" y="1614"/>
      <point x="454" y="1752"/>
      <point x="547" y="1847" type="curve"/>
      <point x="401" y="1980" type="line"/>
      <point x="396" y="1967"/>
      <point x="65" y="1671"/>
      <point x="58" y="1665" type="curve"/>
    </contour>
    <contour>
      <point x="186" y="1700" type="move" name="_top"/>
    </contour>
  </outline>
</glyph>
<glyph name="macron.cap" format="1">
  <advance width="647"/>
  <outline>
    <contour>
      <point x="50" y="1729" type="line"/>
      <point x="597" y="1729" type="line"/>
      <point x="597" y="1891" type="line"/>
      <point x="50" y="1891" type="line"/>
    </contour>
    <contour>
      <point x="321" y="1700" type="move" name="_top"/>
    </contour>
  </outline>
</glyph>
